<svg xmlns="http://www.w3.org/2000/svg" viewBox="0 0 716.02 722.06"><g id="Layer_2" data-name="Layer 2"><g id="Layer_1-2" data-name="Layer 1"><path d="M286.43,38.52A335.64,335.64,0,0,0,229,57.32,327.2,327.2,0,0,0,91.58,169.14q-8.53,12.12-15.89,25c-4.9,8.54-9.43,17.29-13.52,26.23A317.85,317.85,0,0,0,35.71,391.73,312.43,312.43,0,0,0,141.38,590.42,307.2,307.2,0,0,0,349.27,666,293,293,0,0,0,458,642.8a292.65,292.65,0,0,0,48.69-26.26A298.88,298.88,0,0,0,549.5,582a321.54,321.54,0,0,0,95.9-191.94,316.42,316.42,0,0,0-5.67-109.8A319.63,319.63,0,0,0,595.92,177.4a337.18,337.18,0,0,0-78.29-84,345.89,345.89,0,0,0-49.9-31.54,387.36,387.36,0,0,0-55.62-23.35l1.33-6.87a291.89,291.89,0,0,1,61.91,10.91,315.85,315.85,0,0,1,59.32,23.77,335,335,0,0,1,100.89,81.41A339.63,339.63,0,0,1,673,202.34a343.52,343.52,0,0,1,26.36,61.31,352.88,352.88,0,0,1,15.74,133.09,343.67,343.67,0,0,1-72.3,187.52,354,354,0,0,1-46.64,49,365,365,0,0,1-180.57,84,374.24,374.24,0,0,1-66.3,4.79,360,360,0,0,1-129.13-26.26A351.76,351.76,0,0,1,.87,395.07,350.08,350.08,0,0,1,15.24,268.12,340.14,340.14,0,0,1,74,156a344.38,344.38,0,0,1,94.42-82.41A334.18,334.18,0,0,1,285.1,31.65Z"/><ellipse cx="359.77" cy="35.5" rx="54" ry="35.5"/></g></g></svg>